<?xml version="1.0" encoding="UTF-8"?>
<svg id="Ebene_1" data-name="Ebene 1" xmlns="http://www.w3.org/2000/svg" viewBox="0 0 959.09 588.26">
  <defs>
    <style>
      .cls-1 {
        fill: #fff;
      }

      .cls-2 {
        fill: #020202;
      }
    </style>
  </defs>
  <path class="cls-2" d="M250.67,319.37c-49.79-88.03-112.01-170.76-165.16-257.47-5.98-9.51.8-23.27,13.16-17.69l262.12,282.04c2.07.16,32.83-20.44,33.81-23.18-.73-27.85,7.3-77.55,25.65-99.96,0,0,298.05-198.85,298.05-198.85,73.11-46.61-22.66,304.11-21.85,335.96l-43.12,40.27c61.03-23.77,125.02-43.52,184.27-70.43,10.45,1.32,64.07,1.61,70.06,14.37,5.18,6.24,43.41,66.01,43.98,70.07.97,6.89-4.95,14.41-4.45,21.35,1.66,23.36,31.53,28.35-10.23,40.48l-11.07-4.86c-17.75-22.84-36.54-44.76-56.37-65.75-76.79,10.64-134.14,63.7-203.54,92.62l-4.78,7.2c-34.9,18.07-64.71,43.01-89.45,74.81l-4.53,1.14c-1.44.04-3.49,3.12-7.46,1.3-2.04-.93-26.64-24.31-30.53-28.2l-9.32-3.01c-8.83-12.77-19.41-23.19-31.71-31.26-147.02,35.55-297.3,52.42-444.29,87.95-7.01-.32-44.04-3.48-43.91-10.87l250.67-226.23c-1.8-4.33,1.62-7.25,10.25-8.74-2.8-6.3-6.4-12.43-11.3-17.43l1.05-5.62Z"/>
  <g>
    <path class="cls-1" d="M402.61,304.69c-2.54-33.72,7.37-66.6,20.98-97.16L723.5,9.28c2.52-.6,12.76-1.14,13.4-.53,2.71,62.17-14.06,142.37-25.33,205.45-64.63,27.86-145.3,40.13-215.26,39.13-29.46,15.32-59.2,33.91-87.13,52.9l-6.57-1.55Z"/>
    <path class="cls-1" d="M838.2,329.15c1.73,1.45,2.25,3.29,2.69,5.32-43.19,42.53-122.35,67.76-168.42,109.44-14.46,21.61-30.54,37.18-52.06,51.55-22.93,15.29-37.7,39.53-55.66,59.98-5.56,5.16-8.68-7.21-10.78-9.89.63-16.43,9.63-49.99,15.1-65.76,1.04-2.99-1.19-3.66-4.39-3.91-1.74,2.89-7.45,5.68-10.13,2.45-14.34,1.81-47.12,16.35-58.25,9.78-23.51,4.2-47.5,7.62-70.91,12.23l-8.76-1.62-41.99-41.55-118.72-30.7c-7.1-5.63-16.06-7.87-26.88-6.7-7.15-6.16-14.84-8.68-23.08-7.57l-3.43-4.8,53.28-50.04c6.59-1.69,14.67-6.68,20.16-8.65l1.78-5.66c14.04-.84,27.59-3.7,40.66-8.59,5.81,4.33,11.92,8.26,18.34,11.81,5.07-1.55,8.1-1.05,4.69,3.05,38.24,26.58,77.16,52.3,116.79,77.16,33.68,9.2,67.47,18.33,101.38,27.4l4.19-3.95c10.49,10.3,20.08-1.26,18.22-13.96,75.05-59.15,170.35-80.42,256.16-119.05,7.02,2.45,7.76,10.46,0,12.23Z"/>
    <path class="cls-1" d="M202.55,407.41c.95-.14,17.65-.22,18.57.02,2.43.62,2.19,4.66,5.35,6.22,11.38,5.61,22.05-3.22,27.86,7.34l122.96,32.15,48.12,47.21c-127.39,25.1-253.98,55.71-381.5,80.57l-33.8-4.79c39.05-27.28,151.73-141.36,192.45-168.72Z"/>
    <path class="cls-1" d="M498.85,258.22c36.5-16.36,128.03,36.71,160.16,57.97,19.7,3.64,29.63,11.22,29.77,22.74-10.1,17.53-40.5,32.87-53.17,50.15,12.64,5.18,23.31-5.46,35.44-6.13l-88.64,58.7c-7.51,1.08-10.85-7.86-5.06-12.23l-.39-5.58c12.7-4.42,24.65-9.9,35.84-16.43-2.12-9.38-8.12-16.47-18.01-21.27-32.65-43.04-67.41-83.11-104.28-120.21-4.85-8.16,1.58-14.79,8.33-7.71Z"/>
    <path class="cls-1" d="M711.57,214.2c-4.59,26.4-12.13,106.22-22.79,124.73-5.59-13.04-23.11-13.51-32.92-18.82-41.97-28.49-81.96-48.18-132.96-58.31-10.54-2.14-10.14-6.89-24.06-3.58-6.88.49-7.72-1.14-2.53-4.89,73.8-4.69,143.74-23.52,215.26-39.13Z"/>
    <path class="cls-1" d="M496.31,253.33l2.53,4.89c-1.86.44-7.3-1.32-5.04,3.64,37.67,36.1,71.03,80.88,104.83,121.1,5.01,6.13,11.65,5.77,12.74,7.15,1.24,1.56,1.99,11.35,9.02,13.65.56,1.45-5.06,1.15-7.59,3.66-4.33,4.21-14.88,10.38-20.71,8.92-16.01-9.82-29.67-22.54-42.6-35.82l-7,1.16c-19.32-33.37-39.44-66.66-60.35-99.89l-128.8,65.83,205.84,100.57.44,5.7c-27.81-6.05-75.63-10.48-100.47-21.54-30.86-16.6-95.54-58.9-122.39-86.07-3.31-9.82,15.51-17.8,24.06-13.18,7.89-.71,33.5-22.81,41.78-28.4,17.88-9.58,77.46-57.16,93.7-51.36Z"/>
    <path class="cls-1" d="M346.9,321.81c-19.55,2.89-128.51-90.54-146.88-97.83-34.91-53.82-73.1-107.09-106.92-162.1-3.31-7.7-4.22-15.34,5.63-10.33,81.54,90.57,169.43,178.79,248.17,270.26Z"/>
    <path class="cls-1" d="M346.9,321.81c3.3,2.93,8.62,4.86,10.13,9.78-9.41,2.53-19.67,1.24-30.79-3.87-10.97,2.13-22.77,3.01-35.41,2.64-7.63,3.79-14.27,5.01-19.91,3.68-20.98-35.52-48.05-74.81-70.91-110.06,3.71-6.91,3.01-4.69,7.6-1.23,45.29,34.66,94.67,64.55,139.28,99.06Z"/>
    <path class="cls-1" d="M270.93,334.04c7.67-9.01,30.28-9.73,37.99-8.38,1.98-.82,4.02-5.1,6.36-6.28,6.06-3.05.7,7.62,5.03,7.27.7-.06,2.53-3.63,5.06-3.86,3.72-.34,25.9,7.84,31.66,8.8l-20.26,14.67c-12.83,6.73-15.01-7.54-16.54-7.42-2.48.2-13.85,5.4-18.91,6.33-7.43,1.37-16.62.41-25.32,3.53-.15-4.55-2.8-10.83-5.06-14.67Z"/>
    <path class="cls-1" d="M559.63,453.88l-217.78-106.4,146.87-74.56c.62.37-1.73,3.13-.86,4.87,13.95,27.75,31.65,53.97,47.23,80.71,5.98,10.26,3.39,15.44,14.41,22.01,12.49,11.9,30.76,32.25,27.86,48.91,5.57,12.27,9.24,18.77,2.48,31.78-7.52-1.19-12.41-5.63-20.2-7.32Z"/>
    <path class="cls-1" d="M612.81,407.41c-1.99,12.45-25.96,14.58-35.45,22.01-7.49-16.5-20.01-32.39-27.86-48.91,12.55,3.12,35.45,27.54,44.87,31.47,5.63,1.43,11.99-5.89,18.44-4.56Z"/>
    <g>
      <path class="cls-1" d="M873.65,373.17c-96.58,9-168.73,82.89-253.24,122.28,3.58-10.51,15.88-15.94,24.09-24.43,9.2-9.51,20.48-28.05,29.19-35.4,44.2-39.13,124.42-61.92,164.51-106.48,9.41-4.56,22.69,11.71,24.42,20.67,15.99,11.06,19.66,18.84,11.03,23.35Z"/>
      <path class="cls-1" d="M838.2,316.92l62.83,7.8c6.1,19.73,38.04,50.59,42.48,68.01,2.23,8.74-5.25,17.85-4,26.9-5.83,15.53-29.04-41.41-32.38-46.46l1.99-4.9c-9.57.3-18.61,3.32-27.13,7.45l-3.26-2.56c-1.52.32-3.56-.33-5.06,0,4.08-7.42-10.74-15.37-15.26-20.79-1.79-10.31-12.14-16.9-20.2-23.23.85-3.25-.59-8.55,0-12.23Z"/>
      <path class="cls-1" d="M564.69,475.89c.98-3.28,9.26-9.57,12.65-6.13-13.82,24.15-9.8,55.86-20.25,81.94-16.74-13.09-26.46-26.85-40.52-41.58l-.34-5.65c15.55-10.69,31.79-19.57,48.45-28.59Z"/>
      <path class="cls-1" d="M909.1,368.28c5.25,2.53,20.53,39.66,25.25,47.79,9.97,6.35,11.13,17.72,17.75,26.83-.16,2.24-11.96,7.08-15.11,5.02-13.95-18.94-30.93-35.69-45.67-53.98-5.91-10.97-5.24-15.01,12.73-23.2-1.22-3.24,1.91-2.92,5.06-2.45Z"/>
      <path class="cls-1" d="M564.69,475.89c-.04.15,2.35,1.13,2.37,2.06l-50.48,32.17c-2.31-4.31-19.92-13.6-14.35-19.09,0,0,52.33-12.71,52.33-12.71,2.22-.46,5.82-4.25,10.13-2.45Z"/>
      <path class="cls-1" d="M554.56,478.34l-53.18,17.12c-1.73-1.95-5.8-2.44-5.06-7.34,19.23-3.44,39.14-5.81,58.25-9.78Z"/>
      <path class="cls-1" d="M904.04,370.72l-15.19,17.12c-1.48-1.92-4.83-2.96-7.6-7.34-2.31-6.89,17.53-12.88,22.79-9.78Z"/>
      <path class="cls-1" d="M909.1,368.28c-9.18,4.61-19.95,5.06-27.86,12.23-1.52-2.41-3.49-3.63-2.53-7.34,10.64-2.26,20.45-9.69,30.39-4.89Z"/>
    </g>
  </g>
</svg>